<svg width="45" height="38" viewBox="0 0 45 38" fill="none" xmlns="http://www.w3.org/2000/svg">
<mask id="path-1-inside-1_42_2224" fill="white">
<path d="M0 9C0 4.02944 4.02944 0 9 0H36C40.9706 0 45 4.02944 45 9V29C45 33.9706 40.9706 38 36 38H9C4.02944 38 0 33.9706 0 29V9Z"/>
</mask>
<path d="M15 10.5L14.0093 10.3643L15 10.5ZM13.5 7L13.0012 7.8667L13.5 7ZM8.35814 5.51011C7.81144 5.58846 7.43177 6.09516 7.51011 6.64186C7.58846 7.18856 8.09516 7.56823 8.64186 7.48989L8.35814 5.51011ZM30 10.5L29.0188 10.6929L30 10.5ZM31.5 7L32.0843 7.81153L31.5 7ZM35.8311 7.48563C36.3754 7.57893 36.8923 7.21328 36.9856 6.66893C37.0789 6.12458 36.7133 5.60767 36.1689 5.51437L35.8311 7.48563ZM13 37C13.2169 37.9762 13.2174 37.9761 13.218 37.976C13.2182 37.9759 13.2187 37.9758 13.2191 37.9757C13.2199 37.9755 13.2208 37.9753 13.2217 37.9751C13.2236 37.9747 13.2258 37.9742 13.2282 37.9736C13.233 37.9725 13.239 37.9711 13.246 37.9694C13.2601 37.9661 13.2784 37.9615 13.3008 37.9558C13.3454 37.9442 13.4062 37.9277 13.481 37.9053C13.6304 37.8606 13.8367 37.7924 14.0823 37.6941C14.5718 37.4983 15.2288 37.1788 15.9057 36.6801C17.2774 35.6693 18.7119 33.9305 18.995 31.0995L17.005 30.9005C16.7881 33.0695 15.7226 34.3307 14.7193 35.0699C14.2087 35.4462 13.7094 35.6892 13.3395 35.8371C13.1555 35.9108 13.0063 35.9597 12.9077 35.9892C12.8584 36.004 12.8221 36.0138 12.8006 36.0193C12.7898 36.0221 12.7828 36.0238 12.7798 36.0245C12.7783 36.0249 12.7778 36.025 12.7783 36.0249C12.7786 36.0248 12.7791 36.0247 12.7799 36.0245C12.7803 36.0244 12.7808 36.0243 12.7813 36.0242C12.7816 36.0242 12.782 36.0241 12.7821 36.024C12.7826 36.0239 12.7831 36.0238 13 37ZM18.995 31.0995C19.2903 28.1469 17.7844 26.2154 16.2935 25.0796C15.5547 24.5167 14.8063 24.1349 14.2472 23.8941C13.966 23.7729 13.7281 23.6855 13.5571 23.6274C13.4715 23.5983 13.4023 23.5765 13.3525 23.5613C13.3275 23.5537 13.3073 23.5478 13.2923 23.5435C13.2848 23.5413 13.2786 23.5395 13.2737 23.5382C13.2713 23.5375 13.2692 23.5369 13.2674 23.5364C13.2665 23.5362 13.2657 23.536 13.265 23.5358C13.2647 23.5357 13.2642 23.5355 13.264 23.5355C13.2635 23.5354 13.2631 23.5352 13 24.5C12.7369 25.4648 12.7365 25.4647 12.7361 25.4646C12.736 25.4645 12.7357 25.4644 12.7355 25.4644C12.7351 25.4643 12.7348 25.4642 12.7346 25.4641C12.7341 25.464 12.734 25.464 12.7342 25.464C12.7346 25.4641 12.7363 25.4646 12.7392 25.4654C12.745 25.4671 12.7556 25.4702 12.7708 25.4748C12.8013 25.4841 12.8498 25.4993 12.9136 25.521C13.0414 25.5645 13.2294 25.6333 13.4559 25.7309C13.9125 25.9276 14.5078 26.2333 15.0815 26.6704C16.2156 27.5346 17.2097 28.8531 17.005 30.9005L18.995 31.0995ZM13 23.5H1.5V25.5H13V23.5ZM30.5 37C30.7425 36.0299 30.7431 36.03 30.7436 36.0301C30.7438 36.0302 30.7443 36.0303 30.7446 36.0304C30.7452 36.0305 30.7458 36.0307 30.7463 36.0308C30.7473 36.0311 30.7481 36.0313 30.7487 36.0314C30.7498 36.0317 30.75 36.0318 30.7493 36.0316C30.748 36.0312 30.7432 36.0299 30.7351 36.0275C30.7189 36.0228 30.6897 36.014 30.6494 36.0003C30.5687 35.9729 30.4446 35.9267 30.2917 35.8566C29.9841 35.7156 29.5708 35.4832 29.1585 35.1224C28.36 34.4237 27.5 33.1917 27.5 31H25.5C25.5 33.8083 26.64 35.5763 27.8415 36.6276C28.4292 37.1418 29.0159 37.4719 29.4583 37.6747C29.6804 37.7765 29.8688 37.8474 30.0068 37.8942C30.0759 37.9177 30.1327 37.9352 30.1751 37.9475C30.1963 37.9537 30.2139 37.9586 30.2277 37.9624C30.2346 37.9642 30.2406 37.9658 30.2455 37.9671C30.248 37.9677 30.2503 37.9683 30.2523 37.9688C30.2532 37.9691 30.2542 37.9693 30.255 37.9695C30.2555 37.9696 30.2561 37.9698 30.2563 37.9699C30.2569 37.97 30.2575 37.9701 30.5 37ZM27.5 31C27.5 28.927 28.621 27.5689 29.8382 26.6837C30.4484 26.2399 31.0648 25.9309 31.5312 25.7331C31.763 25.6347 31.954 25.5654 32.0836 25.5217C32.1483 25.4998 32.1974 25.4844 32.2282 25.4751C32.2437 25.4704 32.2545 25.4673 32.2604 25.4656C32.2634 25.4647 32.2651 25.4642 32.2656 25.4641C32.2658 25.464 32.2657 25.464 32.2653 25.4642C32.2651 25.4642 32.2648 25.4643 32.2645 25.4644C32.2643 25.4644 32.2639 25.4645 32.2639 25.4646C32.2635 25.4647 32.2631 25.4648 32 24.5C31.7369 23.5352 31.7365 23.5354 31.736 23.5355C31.7358 23.5355 31.7354 23.5356 31.735 23.5357C31.7343 23.5359 31.7335 23.5362 31.7327 23.5364C31.7309 23.5369 31.7288 23.5375 31.7264 23.5381C31.7216 23.5395 31.7155 23.5412 31.708 23.5434C31.6931 23.5476 31.6731 23.5535 31.6482 23.561C31.5985 23.5761 31.5294 23.5978 31.4438 23.6268C31.2726 23.6846 31.0339 23.7715 30.7501 23.8919C30.1852 24.1316 29.4266 24.5101 28.6618 25.0663C27.129 26.1811 25.5 28.073 25.5 31H27.5ZM32 25.5H44V23.5H32V25.5ZM14 24.5V13.5H12V24.5H14ZM33 24.5V13.5H31V24.5H33ZM0.5 14.5H13V12.5H0.5V14.5ZM13 13.5C13.6389 14.2693 13.6391 14.2692 13.6392 14.269C13.6393 14.2689 13.6395 14.2688 13.6396 14.2687C13.6399 14.2684 13.6402 14.2682 13.6405 14.2679C13.6412 14.2674 13.642 14.2667 13.6429 14.266C13.6446 14.2645 13.6468 14.2627 13.6495 14.2604C13.6547 14.256 13.6616 14.2502 13.6702 14.2429C13.6872 14.2283 13.7106 14.2081 13.7395 14.1825C13.7973 14.1315 13.8774 14.0589 13.9731 13.9678C14.1636 13.7864 14.4204 13.5266 14.6862 13.212C15.1878 12.6184 15.847 11.6853 15.9907 10.6357L14.0093 10.3643C13.946 10.8257 13.6053 11.3925 13.1585 11.9212C12.9503 12.1677 12.7459 12.3746 12.5937 12.5197C12.518 12.5917 12.4565 12.6473 12.4154 12.6836C12.3949 12.7017 12.3795 12.715 12.3702 12.723C12.3655 12.7269 12.3624 12.7296 12.3608 12.7309C12.3601 12.7316 12.3597 12.7319 12.3597 12.7319C12.3597 12.7318 12.3599 12.7317 12.3601 12.7315C12.3602 12.7314 12.3604 12.7313 12.3605 12.7312C12.3606 12.7311 12.3608 12.731 12.3608 12.731C12.361 12.7308 12.3611 12.7307 13 13.5ZM15.9907 10.6357C16.1152 9.72699 16.1844 8.84559 15.8746 8.04806C15.5453 7.20041 14.8713 6.63543 13.9988 6.1333L13.0012 7.8667C13.7253 8.28345 13.9263 8.55594 14.0103 8.77231C14.1139 9.0388 14.1348 9.44796 14.0093 10.3643L15.9907 10.6357ZM13.9988 6.1333C12.9084 5.50571 11.4259 5.38806 10.3685 5.38475C9.81202 5.38301 9.31478 5.41382 8.95676 5.4449C8.77716 5.4605 8.63106 5.4763 8.52828 5.48842C8.47685 5.49449 8.43616 5.49965 8.40742 5.50342C8.39305 5.5053 8.38166 5.50685 8.3734 5.50798C8.36926 5.50855 8.36592 5.50902 8.36337 5.50937C8.36209 5.50955 8.36102 5.5097 8.36015 5.50983C8.35971 5.50989 8.35933 5.50994 8.35899 5.50999C8.35882 5.51002 8.35861 5.51005 8.35853 5.51006C8.35833 5.51009 8.35814 5.51011 8.5 6.5C8.64186 7.48989 8.6417 7.48991 8.64155 7.48993C8.64151 7.48994 8.64138 7.48996 8.64131 7.48997C8.64118 7.48998 8.64109 7.49 8.64106 7.49C8.64099 7.49001 8.64112 7.48999 8.64144 7.48995C8.64209 7.48986 8.64351 7.48966 8.64568 7.48936C8.65004 7.48876 8.65743 7.48776 8.6677 7.48641C8.68824 7.48371 8.72026 7.47964 8.76258 7.47465C8.8473 7.46466 8.97283 7.45103 9.12976 7.43741C9.44482 7.41005 9.88026 7.38323 10.3622 7.38474C11.3818 7.38793 12.3993 7.52028 13.0012 7.8667L13.9988 6.1333ZM44 12.5H32V14.5H44V12.5ZM32 13.5C32.6612 12.7498 32.6614 12.7499 32.6615 12.7501C32.6615 12.7501 32.6617 12.7502 32.6617 12.7503C32.6619 12.7504 32.662 12.7505 32.6621 12.7506C32.6623 12.7508 32.6624 12.7509 32.6624 12.7509C32.6624 12.7508 32.662 12.7505 32.6612 12.7498C32.6596 12.7484 32.6565 12.7456 32.652 12.7415C32.6428 12.7332 32.628 12.7197 32.6082 12.7011C32.5684 12.6641 32.5089 12.6074 32.4356 12.5342C32.2881 12.3869 32.0887 12.1764 31.8825 11.9257C31.4449 11.394 31.0787 10.8031 30.9812 10.3071L29.0188 10.6929C29.2154 11.6933 29.8492 12.6025 30.3381 13.1966C30.5951 13.5088 30.8406 13.7678 31.0221 13.9492C31.1133 14.0403 31.1894 14.1128 31.2441 14.1638C31.2715 14.1893 31.2936 14.2095 31.3096 14.224C31.3176 14.2313 31.3241 14.2371 31.329 14.2415C31.3314 14.2437 31.3335 14.2455 31.3351 14.247C31.3359 14.2477 31.3367 14.2483 31.3373 14.2489C31.3376 14.2491 31.3378 14.2494 31.3381 14.2496C31.3382 14.2497 31.3384 14.2499 31.3385 14.2499C31.3386 14.2501 31.3388 14.2502 32 13.5ZM30.9812 10.3071C30.8446 9.61174 30.9009 9.20794 31.0341 8.91086C31.1753 8.59598 31.4672 8.25589 32.0843 7.81153L30.9157 6.18847C30.1789 6.71892 29.5599 7.31033 29.2092 8.0925C28.8504 8.89246 28.8337 9.75125 29.0188 10.6929L30.9812 10.3071ZM32.0843 7.81153C32.5165 7.50036 33.3499 7.36163 34.2813 7.36493C34.7113 7.36645 35.1044 7.39726 35.3906 7.42801C35.533 7.4433 35.6471 7.45837 35.7238 7.46933C35.7621 7.4748 35.791 7.47922 35.8092 7.48211C35.8184 7.48355 35.8249 7.48461 35.8286 7.48522C35.8304 7.48552 35.8315 7.48571 35.832 7.48578C35.8322 7.48582 35.8322 7.48582 35.8321 7.4858C35.832 7.48579 35.8319 7.48576 35.8317 7.48574C35.8316 7.48572 35.8315 7.4857 35.8314 7.48569C35.8313 7.48566 35.8311 7.48563 36 6.5C36.1689 5.51437 36.1687 5.51434 36.1685 5.5143C36.1684 5.51428 36.1682 5.51425 36.168 5.51421C36.1677 5.51415 36.1673 5.51409 36.1668 5.51401C36.1659 5.51386 36.1648 5.51368 36.1636 5.51346C36.161 5.51303 36.1577 5.51249 36.1537 5.51182C36.1457 5.5105 36.1347 5.50872 36.121 5.50656C36.0936 5.50223 36.055 5.49634 36.0065 5.48941C35.9095 5.47557 35.7723 5.4575 35.6042 5.43945C35.2696 5.4035 34.8051 5.36677 34.2884 5.36494C33.3262 5.36154 31.9097 5.47281 30.9157 6.18847L32.0843 7.81153ZM9 2H36V-2H9V2ZM43 9V29H47V9H43ZM36 36H9V40H36V36ZM2 29V9H-2V29H2ZM9 36C5.13401 36 2 32.866 2 29H-2C-2 35.0751 2.92487 40 9 40V36ZM43 29C43 32.866 39.866 36 36 36V40C42.0751 40 47 35.0751 47 29H43ZM36 2C39.866 2 43 5.13401 43 9H47C47 2.92487 42.0751 -2 36 -2V2ZM9 -2C2.92487 -2 -2 2.92487 -2 9H2C2 5.13401 5.13401 2 9 2V-2Z" fill="url(#paint0_linear_42_2224)" mask="url(#path-1-inside-1_42_2224)"/>
<defs>
<linearGradient id="paint0_linear_42_2224" x1="-0.625" y1="1.61702" x2="47.4942" y2="5.28581" gradientUnits="userSpaceOnUse">
<stop stop-color="#F5F5F5"/>
<stop offset="1" stop-color="#BEBEBE"/>
</linearGradient>
</defs>
</svg>
