<svg width="10" height="10" viewBox="0 0 10 10" fill="none" xmlns="http://www.w3.org/2000/svg">
<path fill-rule="evenodd" clip-rule="evenodd" d="M9.688 0.178414C9.85725 0.299368 9.96353 0.472976 9.98348 0.661072C10.0034 0.849168 9.93542 1.03636 9.79439 1.18149L6.08181 5L9.79439 8.81851C9.86737 8.89001 9.92292 8.97329 9.95779 9.06346C9.99266 9.15363 10.0061 9.24887 9.99743 9.34357C9.98872 9.43827 9.958 9.53052 9.90708 9.6149C9.85616 9.69927 9.78607 9.77407 9.70092 9.83488C9.61577 9.89569 9.5173 9.9413 9.41129 9.96901C9.30527 9.99672 9.19386 10.006 9.08361 9.99625C8.97336 9.98651 8.8665 9.95798 8.7693 9.91232C8.67211 9.86667 8.58655 9.80481 8.51766 9.7304L5 6.11278L1.48276 9.7304C1.41345 9.80375 1.32783 9.86456 1.23086 9.90931C1.1339 9.95405 1.02753 9.98184 0.917931 9.99105C0.808333 10.0003 0.697691 9.99071 0.592434 9.96296C0.487176 9.93521 0.389402 9.88981 0.304791 9.8294C0.22018 9.76899 0.150418 9.69477 0.0995596 9.61105C0.048701 9.52733 0.017759 9.43579 0.00853123 9.34173C-0.00069657 9.24768 0.0119739 9.15299 0.0458063 9.06317C0.0796387 8.97335 0.133959 8.89019 0.20561 8.81851L3.91819 5L0.20561 1.18149C0.132633 1.10999 0.0770757 1.02671 0.0422067 0.936537C0.00733758 0.846367 -0.00613897 0.75113 0.00257013 0.65643C0.0112792 0.56173 0.0419981 0.469479 0.0929192 0.385104C0.14384 0.300729 0.213935 0.225935 0.29908 0.165121C0.384226 0.104308 0.482702 0.0587029 0.588715 0.03099C0.694728 0.00327711 0.806137 -0.00598414 0.916387 0.00375091C1.02664 0.013486 1.1335 0.0420207 1.2307 0.0876766C1.32789 0.133333 1.41345 0.195187 1.48234 0.269602L5 3.88722L8.51766 0.269602C8.65878 0.124542 8.86134 0.0334491 9.0808 0.0163495C9.30026 -0.000750146 9.51867 0.0575429 9.688 0.178414Z" fill="#616161"/>
</svg>
