<svg width="11" height="12" viewBox="0 0 11 12" fill="none" xmlns="http://www.w3.org/2000/svg">
<path d="M3.81333 1.33325H2.33333C1.97971 1.33325 1.64057 1.47373 1.39052 1.72378C1.14048 1.97382 1 2.31296 1 2.66659V3.99992C1 7.68192 3.98467 10.6666 7.66667 10.6666H9C9.35362 10.6666 9.69276 10.5261 9.94281 10.2761C10.1929 10.026 10.3333 9.68687 10.3333 9.33325V8.41192C10.3333 8.28814 10.2987 8.16683 10.2336 8.06157C10.1685 7.9563 10.0754 7.87125 9.96467 7.81592L8.354 7.01058C8.26857 6.96785 8.17496 6.94398 8.07951 6.94058C7.98405 6.93718 7.88898 6.95432 7.80073 6.99086C7.71248 7.0274 7.63311 7.08248 7.568 7.15236C7.50289 7.22225 7.45355 7.30531 7.42333 7.39592L7.22533 7.99125C7.16318 8.17776 7.03505 8.33516 6.86503 8.43386C6.695 8.53256 6.49479 8.56577 6.302 8.52725C5.52162 8.37107 4.80493 7.9874 4.24223 7.42459C3.67953 6.86177 3.29601 6.145 3.14 5.36459C3.10148 5.1718 3.13469 4.97158 3.23339 4.80156C3.33209 4.63153 3.48949 4.50341 3.676 4.44125L4.41467 4.19458C4.57384 4.14149 4.70714 4.03032 4.78796 3.88327C4.86878 3.73621 4.89117 3.56409 4.85067 3.40125L4.46 1.83792C4.42389 1.69375 4.34063 1.56579 4.22347 1.47436C4.10631 1.38292 3.96195 1.33326 3.81333 1.33325V1.33325Z" stroke="#616161"/>
</svg>
