<svg width="8" height="12" viewBox="0 0 8 12" fill="none" xmlns="http://www.w3.org/2000/svg">
<path d="M4.5 11C4.5 11.2761 4.27614 11.5 4 11.5C3.72386 11.5 3.5 11.2761 3.5 11L4.5 11ZM3.64645 0.646446C3.84171 0.451184 4.15829 0.451184 4.35355 0.646446L7.53553 3.82843C7.7308 4.02369 7.7308 4.34027 7.53553 4.53553C7.34027 4.7308 7.02369 4.7308 6.82843 4.53553L4 1.70711L1.17157 4.53553C0.976311 4.7308 0.659729 4.7308 0.464466 4.53553C0.269204 4.34027 0.269204 4.02369 0.464466 3.82843L3.64645 0.646446ZM3.5 11L3.5 1L4.5 1L4.5 11L3.5 11Z" fill="#333333"/>
</svg>
