<svg width="36" height="26" viewBox="0 0 36 26" fill="none" xmlns="http://www.w3.org/2000/svg">
<path d="M32 0H4C2.93913 0 1.92172 0.421427 1.17157 1.17157C0.421427 1.92172 0 2.93913 0 4L0 22C0 23.0609 0.421427 24.0783 1.17157 24.8284C1.92172 25.5786 2.93913 26 4 26H32C33.0609 26 34.0783 25.5786 34.8284 24.8284C35.5786 24.0783 36 23.0609 36 22V4C36 2.93913 35.5786 1.92172 34.8284 1.17157C34.0783 0.421427 33.0609 0 32 0Z" fill="#003399"/>
<path d="M18.539 4.70484L19.388 4.08784H18.339L18.014 3.08984L17.69 4.08784H16.641L17.49 4.70484L17.165 5.70284L18.014 5.08584L18.863 5.70284L18.539 4.70484ZM18.539 22.0378L19.388 21.4208H18.339L18.014 20.4228L17.69 21.4208H16.641L17.49 22.0378L17.165 23.0358L18.014 22.4188L18.863 23.0358L18.539 22.0378ZM9.873 13.3708L10.722 12.7538H9.672L9.348 11.7558L9.023 12.7538H7.974L8.823 13.3708L8.499 14.3688L9.348 13.7518L10.197 14.3688L9.873 13.3708ZM10.98 9.08584L11.829 8.46884H10.779L10.455 7.47084L10.131 8.46884H9.081L9.93 9.08584L9.606 10.0838L10.455 9.46684L11.304 10.0838L10.98 9.08584ZM10.98 17.7048L11.829 17.0878H10.779L10.455 16.0898L10.131 17.0878H9.081L9.93 17.7048L9.606 18.7028L10.455 18.0858L11.304 18.7028L10.98 17.7048ZM14.206 5.86584L15.055 5.24884H14.005L13.681 4.25084L13.357 5.24884H12.307L13.156 5.86584L12.832 6.86384L13.681 6.24684L14.53 6.86384L14.206 5.86584ZM14.206 20.9328L15.055 20.3158H14.005L13.681 19.3178L13.357 20.3158H12.307L13.156 20.9328L12.832 21.9308L13.681 21.3148L14.53 21.9308L14.206 20.9328ZM26.127 13.3708L25.278 12.7538H26.328L26.652 11.7558L26.977 12.7538H28.026L27.177 13.3708L27.501 14.3688L26.652 13.7518L25.803 14.3688L26.127 13.3708ZM25.02 9.08584L24.171 8.46884H25.221L25.545 7.47084L25.869 8.46884H26.919L26.07 9.08584L26.394 10.0838L25.545 9.46684L24.696 10.0838L25.02 9.08584ZM25.02 17.7048L24.171 17.0878H25.221L25.545 16.0898L25.869 17.0878H26.919L26.07 17.7048L26.394 18.7028L25.545 18.0858L24.696 18.7028L25.02 17.7048ZM21.794 5.86584L20.945 5.24884H21.995L22.319 4.25084L22.643 5.24884H23.693L22.844 5.86584L23.168 6.86384L22.319 6.24684L21.47 6.86384L21.794 5.86584ZM21.794 20.9328L20.945 20.3158H21.995L22.319 19.3178L22.643 20.3158H23.693L22.844 20.9328L23.168 21.9308L22.319 21.3148L21.47 21.9308L21.794 20.9328Z" fill="#FFCC00"/>
</svg>
