<svg width="10" height="11" viewBox="0 0 10 11" fill="none" xmlns="http://www.w3.org/2000/svg">
<path d="M5.00033 6.06956C5.35383 6.06956 5.69287 5.92918 5.9429 5.67928C6.19293 5.42937 6.33348 5.0904 6.33366 4.7369C6.33366 4.38328 6.19318 4.04414 5.94313 3.79409C5.69309 3.54404 5.35395 3.40356 5.00033 3.40356C4.6467 3.40356 4.30756 3.54404 4.05752 3.79409C3.80747 4.04414 3.66699 4.38328 3.66699 4.7369C3.66717 5.0904 3.80772 5.42937 4.05775 5.67928C4.30778 5.92918 4.64682 6.06956 5.00033 6.06956Z" stroke="#616161" stroke-linecap="square"/>
<path d="M9 4.73684C9 8.06817 5.66667 10.0668 5 10.0668C4.33333 10.0668 1 8.06817 1 4.73684C1.00053 3.67638 1.42221 2.65954 2.17232 1.90994C2.92243 1.16033 3.93954 0.739325 5 0.739502C7.20867 0.739502 9 2.5295 9 4.73684Z" stroke="#616161" stroke-linecap="square"/>
</svg>
