<svg width="10" height="10" viewBox="0 0 10 10" fill="none" xmlns="http://www.w3.org/2000/svg">
<path d="M0.333344 3L5.00001 5.66667L9.66668 3M1.00001 1H9.00001C9.17682 1 9.34639 1.07024 9.47141 1.19526C9.59644 1.32029 9.66668 1.48986 9.66668 1.66667V8.33333C9.66668 8.51014 9.59644 8.67971 9.47141 8.80474C9.34639 8.92976 9.17682 9 9.00001 9H1.00001C0.823199 9 0.65363 8.92976 0.528606 8.80474C0.403581 8.67971 0.333344 8.51014 0.333344 8.33333V1.66667C0.333344 1.48986 0.403581 1.32029 0.528606 1.19526C0.65363 1.07024 0.823199 1 1.00001 1V1Z" stroke="#616161"/>
</svg>
