<svg xmlns="http://www.w3.org/2000/svg" width="120" height="120" fill="none" xmlns:v="https://vecta.io/nano"><path d="M60 0l5.435 25.688L78.541 2.937l-2.769 26.11 19.495-17.587-10.702 23.976 23.976-10.702-17.587 19.496 26.109-2.769-22.751 13.106L120 60l-25.688 5.435 22.751 13.106-26.109-2.769 17.587 19.495-23.976-10.702 10.702 23.976-19.495-17.587 2.769 26.109-13.106-22.751L60 120l-5.434-25.688-13.106 22.751 2.769-26.109-19.495 17.587 10.702-23.976-23.976 10.702 17.587-19.495-26.11 2.769 22.751-13.106L0 60l25.688-5.434L2.937 41.459l26.11 2.769-17.587-19.495 23.976 10.702-10.702-23.976 19.496 17.587-2.769-26.11 13.106 22.751L60 0z" fill="#222"/></svg>