<svg width="662" height="44" viewBox="0 0 662 44" fill="none" xmlns="http://www.w3.org/2000/svg">
<path d="M23.298 43.44C19.018 43.44 15.138 42.52 11.658 40.68C8.21798 38.8 5.49798 36.22 3.49798 32.94C1.53798 29.62 0.557983 25.88 0.557983 21.72C0.557983 17.56 1.53798 13.84 3.49798 10.56C5.49798 7.24 8.21798 4.66 11.658 2.82C15.138 0.94 19.038 0 23.358 0C26.998 0 30.278 0.64 33.198 1.92C36.158 3.2 38.638 5.04 40.638 7.44L34.398 13.2C31.558 9.92 28.038 8.28 23.838 8.28C21.238 8.28 18.918 8.86 16.878 10.02C14.838 11.14 13.238 12.72 12.078 14.76C10.958 16.8 10.398 19.12 10.398 21.72C10.398 24.32 10.958 26.64 12.078 28.68C13.238 30.72 14.838 32.32 16.878 33.48C18.918 34.6 21.238 35.16 23.838 35.16C28.038 35.16 31.558 33.5 34.398 30.18L40.638 35.94C38.638 38.38 36.158 40.24 33.198 41.52C30.238 42.8 26.938 43.44 23.298 43.44Z" fill="#1C1C1C"/>
<path d="M85.7219 0.719998V42.72H76.0019V25.5H56.9219V42.72H47.2019V0.719998H56.9219V17.28H76.0019V0.719998H85.7219Z" fill="#1C1C1C"/>
<path d="M160.078 34.92V42.72H95.6589V0.719998H159.298V8.52H105.319V17.64H156.718V25.2H105.319V34.92H160.078Z" fill="#1C1C1C"/>
<path d="M195.472 33.72H175.972L172.252 42.72H162.292L181.012 0.719998H190.612L209.392 42.72H199.192L195.472 33.72ZM192.412 26.34L185.752 10.26L179.092 26.34H192.412Z" fill="#1C1C1C"/>
<path d="M220.34 8.64H206.9V0.719998H243.5V8.64H230.06V42.72H220.34V8.64Z" fill="#1C1C1C"/>
<path d="M264.128 43.44C260.808 43.44 257.588 43 254.468 42.12C251.388 41.2 248.908 40.02 247.028 38.58L250.328 31.26C252.128 32.58 254.268 33.64 256.748 34.44C259.228 35.24 261.708 35.64 264.188 35.64C266.948 35.64 268.988 35.24 270.308 34.44C271.628 33.6 272.288 32.5 272.288 31.14C272.288 30.14 271.888 29.32 271.088 28.68C270.328 28 269.328 27.46 268.088 27.06C266.888 26.66 265.248 26.22 263.168 25.74C259.968 24.98 257.348 24.22 255.308 23.46C253.268 22.7 251.508 21.48 250.028 19.8C248.588 18.12 247.868 15.88 247.868 13.08C247.868 10.64 248.528 8.44 249.848 6.48C251.168 4.48 253.148 2.9 255.788 1.74C258.468 0.58 261.728 0 265.568 0C268.248 0 270.868 0.32 273.428 0.959999C275.988 1.6 278.228 2.52 280.148 3.72L277.148 11.1C273.268 8.9 269.388 7.8 265.508 7.8C262.788 7.8 260.768 8.24 259.448 9.12C258.168 10 257.528 11.16 257.528 12.6C257.528 14.04 258.268 15.12 259.748 15.84C261.268 16.52 263.568 17.2 266.648 17.88C269.848 18.64 272.468 19.4 274.508 20.16C276.548 20.92 278.288 22.12 279.728 23.76C281.208 25.4 281.948 27.62 281.948 30.42C281.948 32.82 281.268 35.02 279.908 37.02C278.588 38.98 276.588 40.54 273.908 41.7C271.228 42.86 267.968 43.44 264.128 43.44Z" fill="#1C1C1C"/>
<path d="M327.11 0.719998V42.72H317.39V25.5H298.31V42.72H288.59V0.719998H298.31V17.28H317.39V0.719998H327.11Z" fill="#1C1C1C"/>
<path d="M369.567 34.92V42.72H337.047V0.719998H368.787V8.52H346.707V17.64H366.207V25.2H346.707V34.92H369.567Z" fill="#1C1C1C"/>
<path d="M409.821 34.92V42.72H377.301V0.719998H409.041V8.52H386.961V17.64H406.461V25.2H386.961V34.92H409.821Z" fill="#1C1C1C"/>
<path d="M426.255 8.64H412.815V0.719998H449.415V8.64H435.975V42.72H426.255V8.64Z" fill="#1C1C1C"/>
<path d="M468.152 43.44C464.832 43.44 461.612 43 458.492 42.12C455.412 41.2 452.932 40.02 451.052 38.58L454.352 31.26C456.152 32.58 458.292 33.64 460.772 34.44C463.252 35.24 465.732 35.64 468.212 35.64C470.972 35.64 473.012 35.24 474.332 34.44C475.652 33.6 476.312 32.5 476.312 31.14C476.312 30.14 475.911 29.32 475.112 28.68C474.352 28 473.352 27.46 472.112 27.06C470.911 26.66 469.272 26.22 467.192 25.74C463.992 24.98 461.372 24.22 459.332 23.46C457.292 22.7 455.532 21.48 454.052 19.8C452.612 18.12 451.892 15.88 451.892 13.08C451.892 10.64 452.552 8.44 453.872 6.48C455.192 4.48 457.172 2.9 459.812 1.74C462.492 0.58 465.752 0 469.592 0C472.272 0 474.892 0.32 477.452 0.959999C480.012 1.6 482.251 2.52 484.172 3.72L481.172 11.1C477.292 8.9 473.412 7.8 469.532 7.8C466.812 7.8 464.792 8.24 463.472 9.12C462.192 10 461.552 11.16 461.552 12.6C461.552 14.04 462.292 15.12 463.772 15.84C465.292 16.52 467.592 17.2 470.672 17.88C473.872 18.64 476.492 19.4 478.532 20.16C480.572 20.92 482.312 22.12 483.752 23.76C485.232 25.4 485.972 27.62 485.972 30.42C485.972 32.82 485.292 35.02 483.932 37.02C482.612 38.98 480.612 40.54 477.932 41.7C475.252 42.86 471.992 43.44 468.152 43.44Z" fill="#1C1C1C"/>
<path d="M491.574 22.08H508.554V29.58H491.574V22.08Z" fill="#1C1C1C"/>
<path d="M523.146 43.44C520.306 43.44 517.686 42.92 515.286 41.88C512.926 40.8 510.986 39.28 509.466 37.32L514.866 30.84C517.146 33.92 519.746 35.46 522.666 35.46C526.626 35.46 528.606 33.14 528.606 28.5V8.52H513.846V0.719998H538.266V27.96C538.266 33.12 536.986 37 534.426 39.6C531.866 42.16 528.106 43.44 523.146 43.44Z" fill="#1C1C1C"/>
<path d="M561.667 43.44C558.347 43.44 555.127 43 552.007 42.12C548.927 41.2 546.447 40.02 544.567 38.58L547.867 31.26C549.667 32.58 551.807 33.64 554.287 34.44C556.767 35.24 559.247 35.64 561.727 35.64C564.487 35.64 566.527 35.24 567.847 34.44C569.167 33.6 569.827 32.5 569.827 31.14C569.827 30.14 569.427 29.32 568.627 28.68C567.867 28 566.867 27.46 565.627 27.06C564.427 26.66 562.787 26.22 560.707 25.74C557.507 24.98 554.887 24.22 552.847 23.46C550.807 22.7 549.047 21.48 547.567 19.8C546.127 18.12 545.407 15.88 545.407 13.08C545.407 10.64 546.067 8.44 547.387 6.48C548.707 4.48 550.687 2.9 553.327 1.74C556.007 0.58 559.267 0 563.107 0C565.787 0 568.407 0.32 570.967 0.959999C573.527 1.6 575.767 2.52 577.687 3.72L574.687 11.1C570.807 8.9 566.927 7.8 563.047 7.8C560.327 7.8 558.307 8.24 556.987 9.12C555.707 10 555.067 11.16 555.067 12.6C555.067 14.04 555.807 15.12 557.287 15.84C558.807 16.52 561.107 17.2 564.187 17.88C567.387 18.64 570.007 19.4 572.047 20.16C574.087 20.92 575.827 22.12 577.267 23.76C578.747 25.4 579.487 27.62 579.487 30.42C579.487 32.82 578.807 35.02 577.447 37.02C576.127 38.98 574.127 40.54 571.447 41.7C568.767 42.86 565.507 43.44 561.667 43.44Z" fill="#1C1C1C"/>
<path d="M585.079 42.96C584.259 42.96 583.569 42.68 583.009 42.12C582.449 41.56 582.169 40.86 582.169 40.02C582.169 39.16 582.449 38.47 583.009 37.95C583.569 37.41 584.259 37.14 585.079 37.14C585.899 37.14 586.589 37.41 587.149 37.95C587.709 38.47 587.989 39.16 587.989 40.02C587.989 40.86 587.709 41.56 587.149 42.12C586.589 42.68 585.899 42.96 585.079 42.96Z" fill="#1C1C1C"/>
<path d="M600.954 43.08C598.814 43.08 596.874 42.62 595.134 41.7C593.414 40.76 592.055 39.47 591.055 37.83C590.075 36.17 589.584 34.3 589.584 32.22C589.584 30.14 590.075 28.28 591.055 26.64C592.055 24.98 593.414 23.69 595.134 22.77C596.874 21.83 598.825 21.36 600.984 21.36C602.805 21.36 604.444 21.68 605.904 22.32C607.384 22.96 608.625 23.88 609.625 25.08L606.505 27.96C605.085 26.32 603.324 25.5 601.224 25.5C599.924 25.5 598.765 25.79 597.745 26.37C596.724 26.93 595.924 27.72 595.344 28.74C594.784 29.76 594.505 30.92 594.505 32.22C594.505 33.52 594.784 34.68 595.344 35.7C595.924 36.72 596.724 37.52 597.745 38.1C598.765 38.66 599.924 38.94 601.224 38.94C603.324 38.94 605.085 38.11 606.505 36.45L609.625 39.33C608.625 40.55 607.384 41.48 605.904 42.12C604.424 42.76 602.774 43.08 600.954 43.08Z" fill="#1C1C1C"/>
<path d="M622.637 43.08C620.457 43.08 618.487 42.61 616.727 41.67C614.987 40.73 613.617 39.44 612.617 37.8C611.637 36.14 611.147 34.28 611.147 32.22C611.147 30.16 611.637 28.31 612.617 26.67C613.617 25.01 614.987 23.71 616.727 22.77C618.487 21.83 620.457 21.36 622.637 21.36C624.817 21.36 626.777 21.83 628.517 22.77C630.257 23.71 631.627 25.01 632.627 26.67C633.627 28.31 634.127 30.16 634.127 32.22C634.127 34.28 633.627 36.14 632.627 37.8C631.627 39.44 630.257 40.73 628.517 41.67C626.777 42.61 624.817 43.08 622.637 43.08ZM622.637 38.94C623.877 38.94 624.997 38.66 625.997 38.1C626.997 37.52 627.777 36.72 628.337 35.7C628.917 34.68 629.207 33.52 629.207 32.22C629.207 30.92 628.917 29.76 628.337 28.74C627.777 27.72 626.997 26.93 625.997 26.37C624.997 25.79 623.877 25.5 622.637 25.5C621.397 25.5 620.277 25.79 619.277 26.37C618.277 26.93 617.487 27.72 616.907 28.74C616.347 29.76 616.067 30.92 616.067 32.22C616.067 33.52 616.347 34.68 616.907 35.7C617.487 36.72 618.277 37.52 619.277 38.1C620.277 38.66 621.397 38.94 622.637 38.94Z" fill="#1C1C1C"/>
<path d="M656.889 42.72L656.859 30.12L650.68 40.5H648.49L642.339 30.39V42.72H637.779V21.72H641.799L649.659 34.77L657.399 21.72H661.389L661.449 42.72H656.889Z" fill="#1C1C1C"/>
</svg>
