<svg width="120" height="120" fill="none" xmlns="http://www.w3.org/2000/svg"><path d="M60 0l5.434 25.688L78.541 2.937l-2.77 26.11 19.496-17.588-10.702 23.976 23.976-10.702-17.587 19.495 26.109-2.769-22.75 13.106L120 60l-25.688 5.434 22.751 13.107-26.11-2.77 17.588 19.496-23.976-10.702 10.702 23.976-19.495-17.587 2.769 26.109-13.106-22.75L60 120l-5.434-25.688-13.107 22.751 2.77-26.11-19.496 17.588 10.702-23.976L11.46 95.267l17.587-19.495-26.11 2.769 22.752-13.106L0 60l25.688-5.434L2.937 41.459l26.11 2.77-17.588-19.496 23.976 10.702L24.733 11.46l19.495 17.587-2.769-26.11 13.106 22.752L60 0z" fill="#222"/></svg>