<svg width="132" height="133" viewBox="0 0 132 133" fill="none" xmlns="http://www.w3.org/2000/svg">
<path d="M123.565 81.7106L119.669 92.0918L117.998 91.4647L121.163 83.03L117.231 81.5545L115.622 85.8407C115.008 87.4791 114.2 88.5965 113.198 89.1927C112.197 89.789 111.054 89.8461 109.769 89.3641C108.419 88.8575 107.558 88.0037 107.187 86.8025C106.81 85.6145 106.944 84.1619 107.588 82.4448L109.801 76.5464L123.565 81.7106ZM109.171 82.949C108.748 84.0762 108.642 85.0159 108.853 85.7681C109.065 86.5202 109.59 87.0537 110.429 87.3685C112.093 87.9931 113.358 87.1519 114.224 84.845L115.677 80.9717L110.624 79.0757L109.171 82.949Z" fill="#616161"/>
<path d="M99.0563 99.2969L97.6231 98.1638L104.24 89.7955L115.771 98.9127L109.337 107.05L107.903 105.917L113.035 99.4268L109.493 96.6265L104.922 102.409L103.522 101.301L108.093 95.5195L104.37 92.5759L99.0563 99.2969Z" fill="#616161"/>
<path d="M94.1378 110.346C93.2374 110.673 92.3941 110.728 91.6077 110.511C90.8293 110.307 90.19 109.85 89.6897 109.14C89.1894 108.431 88.9785 107.646 89.0568 106.785C89.1319 105.945 89.446 105.115 89.9994 104.296C90.5494 103.497 91.2648 102.787 92.1458 102.166C92.9466 101.601 93.8265 101.16 94.7853 100.844C95.7442 100.527 96.7191 100.379 97.7101 100.4L98.0052 102.093C97.1884 102.052 96.3814 102.159 95.584 102.413C94.7866 102.667 94.0562 103.028 93.3926 103.496C92.4316 104.174 91.7662 104.943 91.3965 105.803C91.0349 106.675 91.1042 107.466 91.6045 108.175C92.0322 108.781 92.605 109.071 93.3228 109.045C94.0488 109.03 94.858 108.707 95.7503 108.078L98.4275 106.19L99.4079 107.58L96.8509 109.383C96.0843 109.924 95.5984 110.498 95.3929 111.105C95.1841 111.732 95.2774 112.326 95.6728 112.887C96.1166 113.516 96.7479 113.816 97.5667 113.787C98.3855 113.757 99.2239 113.44 100.082 112.835C100.643 112.439 101.158 111.956 101.629 111.384C102.088 110.821 102.462 110.197 102.751 109.514L104.292 110.533C103.928 111.304 103.469 112.014 102.915 112.661C102.361 113.309 101.746 113.871 101.071 114.347C100.225 114.944 99.354 115.361 98.4591 115.598C97.5642 115.836 96.7333 115.848 95.9664 115.635C95.1881 115.43 94.5608 114.99 94.0848 114.315C93.6571 113.709 93.4535 113.056 93.474 112.356C93.483 111.664 93.7042 110.994 94.1378 110.346Z" fill="#616161"/>
<path d="M70.3022 125.67L67.7693 111.19L69.8379 110.828L70.9669 117.282L79.2826 115.827L78.1536 109.373L80.2222 109.011L82.7551 123.492L80.6866 123.853L79.5974 117.627L71.2817 119.082L72.3708 125.308L70.3022 125.67Z" fill="#616161"/>
<path d="M53.9549 113.085L61.6395 114.49L63.891 111.166L66.0188 111.555L56.8266 124.818L54.7815 124.444L50.8561 108.783L53.0251 109.179L53.9549 113.085ZM54.3757 114.87L56.1996 122.526L60.6143 116.011L54.3757 114.87Z" fill="#616161"/>
<path d="M36.1635 102.498L38.727 98.1583L40.4085 99.1516L38.7743 101.918L49.1888 108.07L50.8411 105.315L52.5226 106.308L49.9411 110.637L49.3263 110.274C48.5023 109.852 47.5715 110.147 46.534 111.161C45.4893 112.186 44.2793 113.78 42.9039 115.943L40.3741 119.936L31.4783 114.681L38.0258 103.598L36.1635 102.498ZM41.4089 114.84C42.523 113.092 43.54 111.701 44.4597 110.667C45.3674 109.626 46.2001 109.028 46.9577 108.874L39.8158 104.655L34.1976 114.166L39.7484 117.445L41.4089 114.84Z" fill="#616161"/>
<path d="M24.9913 109.049L23.532 107.568L34.0017 97.2494L35.4611 98.7301L24.9913 109.049Z" fill="#616161"/>
<path d="M18.8081 102.106L17.5728 100.408L29.4604 91.7606L30.6957 93.4588L18.8081 102.106ZM18.0826 103.75C18.2555 103.988 18.3245 104.25 18.2896 104.535C18.2433 104.828 18.0956 105.065 17.8465 105.247C17.5974 105.428 17.3262 105.495 17.0329 105.449C16.7395 105.403 16.5064 105.261 16.3334 105.023C16.1605 104.785 16.0971 104.52 16.1434 104.226C16.1897 103.933 16.3374 103.696 16.5865 103.514C16.8356 103.333 17.1068 103.266 17.4001 103.312C17.6822 103.367 17.9096 103.513 18.0826 103.75ZM15.7849 100.592C15.9578 100.83 16.0268 101.091 15.9919 101.376C15.9456 101.669 15.7979 101.907 15.5488 102.088C15.2997 102.269 15.0285 102.337 14.7352 102.29C14.4418 102.244 14.2087 102.102 14.0357 101.864C13.8628 101.626 13.7994 101.361 13.8457 101.068C13.892 100.774 14.0397 100.537 14.2888 100.356C14.5378 100.175 14.8091 100.107 15.1024 100.153C15.3845 100.208 15.6119 100.354 15.7849 100.592Z" fill="#616161"/>
<path d="M23.2291 77.7344C23.6544 79.2145 23.7277 80.6355 23.449 81.9974C23.1529 83.3498 22.5432 84.5228 21.6197 85.5165C20.6962 86.5102 19.528 87.21 18.1152 87.6159C16.7023 88.0219 15.3409 88.0489 14.0307 87.6971C12.7206 87.3452 11.5879 86.6728 10.6326 85.6801C9.65992 84.6777 8.96095 83.4364 8.53566 81.9563C8.1645 80.6646 8.05881 79.435 8.2186 78.2674C8.37839 77.0999 8.79027 76.0493 9.45424 75.1156L12.4859 76.9976C11.6454 78.2296 11.4127 79.4982 11.7877 80.8034C12.0081 81.5704 12.3735 82.2083 12.8839 82.7171C13.3904 83.2125 14.0014 83.5395 14.717 83.698C15.4153 83.847 16.1614 83.8074 16.9553 83.5793C17.7492 83.3512 18.4092 82.9867 18.9354 82.4859C19.4442 81.9756 19.7818 81.376 19.948 80.6873C20.1104 79.9852 20.0814 79.2506 19.8611 78.4836C19.486 77.1784 18.6154 76.2269 17.2491 75.6289L18.8193 72.4247C19.8776 72.8635 20.7844 73.5352 21.5396 74.4398C22.2948 75.3445 22.858 76.4426 23.2291 77.7344Z" fill="#30CDFF"/>
<path d="M7.23634 56.1528L21.9083 57.0597L21.6544 61.1679L10.2731 60.4644L9.92852 66.0397L21.3098 66.7432L21.0572 70.8304L6.38516 69.9235L7.23634 56.1528Z" fill="#30CDFF"/>
<path d="M25.4823 48.3025C24.8293 49.7126 23.9424 50.8448 22.8218 51.6989C21.707 52.5403 20.4723 53.0409 19.1179 53.2005C17.7693 53.3474 16.4344 53.1149 15.1132 52.503C13.792 51.8912 12.7513 51.0235 11.991 49.9C11.2366 48.7638 10.8197 47.4985 10.7404 46.1041C10.6669 44.6969 10.9566 43.2883 11.6097 41.8781C12.2627 40.468 13.1466 39.3422 14.2614 38.5008C15.3821 37.6466 16.6167 37.1461 17.9653 36.9992C19.3197 36.8396 20.6576 37.0657 21.9788 37.6776C23.3 38.2894 24.3378 39.1635 25.0922 40.2997C25.8524 41.4231 26.2693 42.6885 26.3428 44.0956C26.4222 45.4901 26.1353 46.8924 25.4823 48.3025ZM22.3572 46.8552C22.669 46.1819 22.7926 45.4986 22.7279 44.8053C22.6633 44.1119 22.4187 43.4741 21.9941 42.8917C21.5568 42.3035 20.9634 41.8359 20.2139 41.4888C19.4643 41.1417 18.7302 40.9945 18.0114 41.0474C17.28 41.0944 16.629 41.3174 16.0584 41.7166C15.4878 42.1158 15.0466 42.6521 14.7348 43.3254C14.423 43.9987 14.2994 44.682 14.3641 45.3754C14.4287 46.0687 14.6796 46.7095 15.1169 47.2977C15.5415 47.88 16.1286 48.3448 16.8781 48.6919C17.6277 49.039 18.3682 49.189 19.0996 49.1421C19.8184 49.0892 20.463 48.8632 21.0336 48.464C21.6042 48.0648 22.0454 47.5286 22.3572 46.8552Z" fill="#30CDFF"/>
<path d="M38.8595 25.9928L43.1541 30.5446L40.3894 33.1531L38.3574 30.9994L31.5144 37.4557L33.5464 39.6094L30.7664 42.2323L26.4718 37.6805L26.8537 37.3202C27.4754 36.7143 27.5101 35.8636 26.9576 34.768C26.4153 33.6629 25.4157 32.277 23.9588 30.6104L20.9682 27.1959L29.583 19.0678L37.4084 27.3619L38.8595 25.9928ZM26.8463 28.3769C27.8816 29.5559 28.7027 30.6097 29.3095 31.5385C29.9164 32.4673 30.2739 33.2848 30.3821 33.9911L34.4299 30.1721L28.867 24.2761L25.7969 27.1728L26.8463 28.3769Z" fill="#30CDFF"/>
<path d="M35.9185 15.0482L39.5329 13.1234L46.4423 26.0984L42.8278 28.0232L35.9185 15.0482Z" fill="#30CDFF"/>
<path d="M57.1611 14.5453C58.0706 14.6128 58.8124 14.8794 59.3864 15.3451C59.9741 15.8076 60.3702 16.4606 60.5749 17.3041C60.8819 18.5694 60.628 19.6899 59.8131 20.6656C59.0084 21.6244 57.7014 22.3233 55.8919 22.7623L48.5655 24.5401L45.0992 10.2546L52.0378 8.57096C53.7521 8.155 55.1578 8.15965 56.255 8.58491C57.3626 8.99327 58.0599 9.78927 58.3471 10.9729C58.5155 11.6668 58.494 12.3203 58.2826 12.9334C58.0848 13.5433 57.711 14.0806 57.1611 14.5453ZM50.4652 15.0032L53.0366 14.3792C54.1794 14.1019 54.637 13.4939 54.4092 12.5551C54.1814 11.6164 53.4961 11.2856 52.3532 11.563L49.7819 12.1869L50.4652 15.0032ZM55.0255 19.904C56.1955 19.6201 56.66 18.9816 56.4191 17.9884C56.1847 17.0224 55.4824 16.6814 54.3124 16.9653L51.1288 17.7378L51.8419 20.6765L55.0255 19.904Z" fill="#30CDFF"/>
<path d="M74.1731 19.3748L67.9986 18.6576L66.5219 21.3613L62.3082 20.8719L70.4498 7.0187L74.5175 7.49115L79.288 22.8441L74.9909 22.345L74.1731 19.3748ZM73.317 16.1887L71.9823 11.2981L69.5622 15.7526L73.317 16.1887Z" fill="#30CDFF"/>
<path d="M99.135 16.5898C100.413 17.3706 101.395 18.3556 102.079 19.5447C102.764 20.7338 103.096 22.003 103.076 23.3522C103.056 24.7014 102.666 25.9973 101.907 27.2399C101.148 28.4825 100.173 29.4208 98.9821 30.0549C97.791 30.689 96.5102 30.9731 95.1397 30.907C93.7692 30.841 92.4448 30.4176 91.1664 29.6368C90.0433 28.9508 89.1412 28.1046 88.46 27.098C87.7908 26.0986 87.3827 25.021 87.2357 23.8649C87.1007 22.7161 87.2381 21.5779 87.648 20.4502L86.3397 19.6512L83.3624 24.5259L79.8677 22.3914L87.5298 9.84625L91.0246 11.9807L88.1567 16.6762L89.5008 17.4971C90.3262 16.6561 91.2758 16.0549 92.3495 15.6936C93.4305 15.3203 94.5551 15.2115 95.7232 15.3672C96.8985 15.5109 98.0358 15.9185 99.135 16.5898ZM92.9615 26.6976C93.5589 27.0625 94.1878 27.2415 94.8481 27.2347C95.5085 27.2279 96.1402 27.0396 96.7434 26.6698C97.3585 26.3073 97.885 25.7676 98.3228 25.0507C98.7607 24.3339 99.0004 23.619 99.042 22.9062C99.0956 22.2008 98.9747 21.5527 98.6792 20.9621C98.3837 20.3715 97.9373 19.8938 97.3399 19.529C96.7425 19.1641 96.1077 18.9814 95.4354 18.9809C94.7823 18.9758 94.1446 19.1604 93.5222 19.5349C92.919 19.9047 92.3985 20.448 91.9606 21.1649C91.5228 21.8818 91.2735 22.5989 91.2126 23.3164C91.1709 24.0292 91.2979 24.6808 91.5933 25.2714C91.9081 25.8574 92.3641 26.3328 92.9615 26.6976Z" fill="#30CDFF"/>
<path d="M102.667 41.2765C101.78 40.018 101.244 38.6998 101.06 37.3218C100.896 35.9472 101.087 34.639 101.633 33.3973C102.179 32.1555 103.053 31.111 104.254 30.2637C105.455 29.4165 106.732 28.944 108.085 28.8463C109.438 28.7486 110.729 29.0118 111.957 29.636C113.205 30.2635 114.273 31.2065 115.161 32.465C115.935 33.5633 116.439 34.6901 116.671 35.8453C116.903 37.0006 116.859 38.1282 116.538 39.2281L113.057 38.4456C113.447 37.006 113.25 35.7313 112.467 34.6216C112.007 33.9695 111.453 33.4868 110.804 33.1737C110.163 32.8721 109.478 32.7638 108.75 32.849C108.041 32.9375 107.35 33.2198 106.675 33.6959C106 34.172 105.496 34.7329 105.163 35.3787C104.85 36.0278 104.728 36.7049 104.797 37.41C104.874 38.1266 105.143 38.8109 105.603 39.4631C106.385 40.5728 107.52 41.1858 109.007 41.3021L108.576 44.8442C107.432 44.7772 106.355 44.4404 105.345 43.8338C104.334 43.2272 103.442 42.3748 102.667 41.2765Z" fill="#30CDFF"/>
<path d="M118.594 51.2945C119.119 53.0226 119.136 54.4734 118.644 55.6471C118.165 56.8168 117.169 57.6315 115.655 58.0914C114.034 58.5838 112.636 58.4378 111.462 57.6534C110.287 56.869 109.417 55.5458 108.851 53.6838L106.831 47.033L120.896 42.76L122.086 46.6782L117.605 48.0394L118.594 51.2945ZM111.625 52.5558C111.828 53.2256 112.17 53.6998 112.65 53.9784C113.134 54.2704 113.704 54.3166 114.36 54.1172C115.579 53.7469 115.967 52.8317 115.523 51.3716L114.772 48.9001L110.874 50.0843L111.625 52.5558Z" fill="#30CDFF"/>
</svg>
